<svg xmlns="http://www.w3.org/2000/svg" xmlns:xlink="http://www.w3.org/1999/xlink" width="1200" height="1619" viewBox="0 0 1200 1619">
  <defs>
    <clipPath id="clip-custom_1">
      <rect width="1200" height="1619"/>
    </clipPath>
  </defs>
  <g id="custom_1" data-name="custom – 1" clip-path="url(#clip-custom_1)">
    <g id="Composant_1_1" data-name="Composant 1 – 1" transform="translate(290 80.888)">
      <path id="FormeBase" d="M361.225,408,332.31,300.124l-153.035-39.38,187.766,4.4V220.989l-41.947,29.585L349.03,133.782l28.893,33.271,62.678,2.006V170.5l10.8,99.376,82.312-3.245L662.458,42.888,616.591,287.868,798.529,454.953,573.456,373.991l2.929,43.725-66.556-5.444L413.208,436.6,395.223,408Z" transform="translate(-178.793 -42.888)" fill="none" stroke="#000" stroke-width="4"/>
      <path id="Tete2" d="M315,113.112l60.711,3.919L262.182,196.617Z" transform="translate(-116.257 10.08)" fill="none" stroke="#000" stroke-width="4"/>
      <path id="Tracé_1" data-name="Tracé 1" d="M267.046,192.661l34.022-6.864-5.983,114.584Z" transform="translate(-112.589 64.906)" fill="none" stroke="#000" stroke-width="4"/>
      <path id="Tracé_2" data-name="Tracé 2" d="M288.816,225.287l-.722-72.582,30.116-19.26-2.8,206.289H283.29Z" transform="translate(-100.336 25.417)" fill="none" stroke="#000" stroke-width="4"/>
      <path id="Tracé_3" data-name="Tracé 3" d="M179,166.961l155.089,39.925,33.576-7.1v-27.81Z" transform="translate(-179 50.698)" fill="none" stroke="#000" stroke-width="4"/>
      <path id="Tracé_4" data-name="Tracé 4" d="M346.428,114.916l1.5,2.806,20.81,171.9L318.991,378.7,302.216,351.98l2.571-206.547Z" transform="translate(-86.061 12.535)" fill="none" stroke="#000" stroke-width="4"/>
      <path id="Tracé_5" data-name="Tracé 5" d="M334.844,173.215l83.027-2.683,41.6,29.995L343.539,249.444Z" transform="translate(-61.45 53.392)" fill="none" stroke="#000" stroke-width="4"/>
      <path id="Tracé_6" data-name="Tracé 6" d="M381.631,266.417l128.013-223L463.863,287.98l-40.32,8.533Z" transform="translate(-26.159 -42.493)" fill="none" stroke="#000" stroke-width="4"/>
      <path id="Tracé_7" data-name="Tracé 7" d="M388.039,205.275,640.009,349.2l1.087.454L459.048,182.5l-41.008,9.017Z" transform="translate(-21.325 62.417)" fill="none" stroke="#000" stroke-width="4"/>
      <path id="Tracé_8" data-name="Tracé 8" d="M669.732,339.506,348.483,224.094l69.267-28.787Z" transform="translate(-51.162 72.078)" fill="none" stroke="#000" stroke-width="4"/>
      <path id="Tracé_10" data-name="Tracé 10" d="M369.111,279.184l65.354,6.135-2.484-43.676-64.83-22.992Z" transform="translate(-37.081 89.687)" fill="none" stroke="#000" stroke-width="4"/>
    </g>
    <g id="Composant_1_2" data-name="Composant 1 – 2" transform="translate(290 1125.888)">
      <path id="FormeBase-2" data-name="FormeBase" d="M616.579,408l28.916-107.874,153.035-39.38-187.766,4.4V220.989l41.947,29.585L628.774,133.782l-28.893,33.271L537.2,169.058V170.5l-10.8,99.376-82.312-3.245L315.346,42.888l45.867,244.979L179.275,454.953l225.074-80.961-2.929,43.725,66.556-5.444L564.6,436.6,582.581,408Z" transform="translate(-179.24 -42.888)" fill="none" stroke="#000" stroke-width="4"/>
      <path id="Tete2-2" data-name="Tete2" d="M322.893,113.112l-60.711,3.919,113.529,79.586Z" transform="translate(98.136 10.08)" fill="none" stroke="#000" stroke-width="4"/>
      <path id="Tracé_1-2" data-name="Tracé 1" d="M301.068,192.661,267.046,185.8l5.983,114.584Z" transform="translate(164.246 64.906)" fill="none" stroke="#000" stroke-width="4"/>
      <path id="Tracé_2-2" data-name="Tracé 2" d="M312.684,225.287l.722-72.582-30.116-19.26,2.8,206.289H318.21Z" transform="translate(118.608 25.417)" fill="none" stroke="#000" stroke-width="4"/>
      <path id="Tracé_3-2" data-name="Tracé 3" d="M367.665,166.961,212.576,206.886,179,199.789v-27.81Z" transform="translate(252.107 50.698)" fill="none" stroke="#000" stroke-width="4"/>
      <path id="Tracé_4-2" data-name="Tracé 4" d="M324.521,114.916l-1.5,2.806-20.81,171.9L351.958,378.7l16.775-26.718-2.571-206.547Z" transform="translate(34.883 12.535)" fill="none" stroke="#000" stroke-width="4"/>
      <path id="Tracé_5-2" data-name="Tracé 5" d="M459.473,173.215l-83.027-2.683-41.6,29.995,115.934,48.917Z" transform="translate(-113.096 53.392)" fill="none" stroke="#000" stroke-width="4"/>
      <path id="Tracé_6-2" data-name="Tracé 6" d="M509.644,266.417l-128.013-223L427.412,287.98l40.32,8.533Z" transform="translate(-245.344 -42.493)" fill="none" stroke="#000" stroke-width="4"/>
      <path id="Tracé_7-2" data-name="Tracé 7" d="M641.1,205.275,389.126,349.2l-1.087.454L570.088,182.5l41.008,9.017Z" transform="translate(-388.039 62.417)" fill="none" stroke="#000" stroke-width="4"/>
      <path id="Tracé_8-2" data-name="Tracé 8" d="M348.483,339.506l321.25-115.413-69.267-28.787Z" transform="translate(-347.281 72.078)" fill="none" stroke="#000" stroke-width="4"/>
      <path id="Tracé_10-2" data-name="Tracé 10" d="M432.505,279.184l-65.354,6.135,2.484-43.676,64.83-22.992Z" transform="translate(-144.764 89.687)" fill="none" stroke="#000" stroke-width="4"/>
    </g>
    <g id="Composant_2_1" data-name="Composant 2 – 1" transform="translate(309 601.996)">
      <path id="Tracé_11" data-name="Tracé 11" d="M242.391,860.346l235.638-1.288,30.587,76.711,53.065-16.075,61.751,60.172-1.655-20.343h13.256l11.4,13.064L721.9,798.414l103.134-51.172H744.27l26.561-62.888L822.342,731.3l-28.2-95.453-46.393-6.006-79.284,117.4h-32L586.03,681.58l-29.337.2-22.159.208-20.307,29.1L412.258,497.4l57.617,271.253L459.561,781.2Z" transform="translate(-242.391 -497.396)" fill="none" stroke="#000" stroke-width="4"/>
      <path id="Tracé_12" data-name="Tracé 12" d="M519.8,849.763,243.407,905.569l215.067-78.093Z" transform="translate(-242.531 -542.772)" fill="none" stroke="#000" stroke-width="4"/>
      <path id="Tracé_13" data-name="Tracé 13" d="M599.323,881.022,520.2,853.77,245.1,909l291.444-3.282Z" transform="translate(-242.763 -546.386)" fill="none" stroke="#000" stroke-width="4"/>
      <path id="Tracé_14" data-name="Tracé 14" d="M578.955,762.3l-40.983,2.748L493.8,818.542l86.7,31.569Z" transform="translate(-276.952 -533.812)" fill="none" stroke="#000" stroke-width="4"/>
      <path id="Tracé_15" data-name="Tracé 15" d="M631.557,806.689l-38.49-43.73L594.4,850.31l53.384,17.784Z" transform="translate(-290.599 -533.903)" fill="none" stroke="#000" stroke-width="4"/>
      <path id="Tracé_16" data-name="Tracé 16" d="M440.664,501.933l89.475,228.2-33.182,39Z" transform="translate(-269.648 -498.019)" fill="none" stroke="#000" stroke-width="4"/>
      <path id="Tracé_17" data-name="Tracé 17" d="M530.664,729.578l10.513-16.751L440.6,502.254l4.269,12.812Z" transform="translate(-269.639 -498.063)" fill="none" stroke="#000" stroke-width="4"/>
      <path id="Tracé_18" data-name="Tracé 18" d="M613.943,711.964,624.859,799l-38.849-43.471L544.6,758.721l11.772-18.415,19.565-27.875Z" transform="translate(-283.936 -526.892)" fill="none" stroke="#000" stroke-width="4"/>
      <path id="Tracé_19" data-name="Tracé 19" d="M515.73,913.622l30.33,77.985,52.925-16.448-3.364-70.678-21.754,8.338Z" transform="translate(-279.967 -553.358)" fill="none" stroke="#000" stroke-width="4"/>
      <path id="Tracé_20" data-name="Tracé 20" d="M670.593,945.692l-20.476-59.838-.956.365-41.3,15.76,3.722,69.3,60.774,60.661Z" transform="translate(-292.633 -550.797)" fill="none" stroke="#000" stroke-width="4"/>
      <path id="Tracé_21" data-name="Tracé 21" d="M688.043,777.777,637.9,711.756H624.5l11.336,87.1,16.346,62.884L673,922.03l-2.023-68.868,51.553-75.385Z" transform="translate(-294.92 -526.864)" fill="none" stroke="#000" stroke-width="4"/>
      <path id="Tracé_22" data-name="Tracé 22" d="M681.931,980.119h13.358L808.372,651.3,678.734,844.688Z" transform="translate(-302.375 -518.553)" fill="none" stroke="#000" stroke-width="4"/>
      <path id="Tracé_23" data-name="Tracé 23" d="M706.826,994.372l-12.054-14.094L807.6,651.415l3.234,31.79L831.1,702.911Z" transform="translate(-301.993 -518.569)" fill="none" stroke="#000" stroke-width="4"/>
      <path id="Tracé_24" data-name="Tracé 24" d="M905.7,756.547,829.39,653.566l-.206,29.892Z" transform="translate(-323.058 -518.864)" fill="none" stroke="#000" stroke-width="4"/>
      <path id="Tracé_25" data-name="Tracé 25" d="M874.384,658.208l-44.449-5.729,76.093,104.429Z" transform="translate(-323.161 -518.715)" fill="none" stroke="#000" stroke-width="4"/>
      <path id="Tracé_26" data-name="Tracé 26" d="M820.516,787.529l78.936-.007L797.727,839.937Z" transform="translate(-318.733 -537.279)" fill="none" stroke="#000" stroke-width="4"/>
    </g>
    <path id="Tracé_27" data-name="Tracé 27" d="M0,0,.008.682,4,349" transform="translate(621.5 440.5)" fill="#fff" stroke="#000" stroke-width="4"/>
    <line id="Ligne_2" data-name="Ligne 2" x1="2" y2="343" transform="translate(624.5 1009.5)" fill="none" stroke="#000" stroke-width="4"/>
  </g>
</svg>
