<svg xmlns="http://www.w3.org/2000/svg" width="585.456" height="488.484" viewBox="0 0 585.456 488.484">
  <g id="Composant_2_1" data-name="Composant 2 – 1" transform="translate(0.685 0.857)">
    <path id="Tracé_11" data-name="Tracé 11" d="M242.391,860.346l235.638-1.288,30.587,76.711,53.065-16.075,61.751,60.172-1.655-20.343h13.256l11.4,13.064L721.9,798.414l103.134-51.172H744.27l26.561-62.888L822.342,731.3l-28.2-95.453-46.393-6.006-79.284,117.4h-32L586.03,681.58l-29.337.2-22.159.208-20.307,29.1L412.258,497.4l57.617,271.253L459.561,781.2Z" transform="translate(-242.391 -497.396)" fill="none" stroke="#000" stroke-width="4"/>
    <path id="Tracé_12" data-name="Tracé 12" d="M519.8,849.763,243.407,905.569l215.067-78.093Z" transform="translate(-242.531 -542.772)" fill="none" stroke="#000" stroke-width="4"/>
    <path id="Tracé_13" data-name="Tracé 13" d="M599.323,881.022,520.2,853.77,245.1,909l291.444-3.282Z" transform="translate(-242.763 -546.386)" fill="none" stroke="#000" stroke-width="4"/>
    <path id="Tracé_14" data-name="Tracé 14" d="M578.955,762.3l-40.983,2.748L493.8,818.542l86.7,31.569Z" transform="translate(-276.952 -533.812)" fill="none" stroke="#000" stroke-width="4"/>
    <path id="Tracé_15" data-name="Tracé 15" d="M631.557,806.689l-38.49-43.73L594.4,850.31l53.384,17.784Z" transform="translate(-290.599 -533.903)" fill="none" stroke="#000" stroke-width="4"/>
    <path id="Tracé_16" data-name="Tracé 16" d="M440.664,501.933l89.475,228.2-33.182,39Z" transform="translate(-269.648 -498.019)" fill="none" stroke="#000" stroke-width="4"/>
    <path id="Tracé_17" data-name="Tracé 17" d="M530.664,729.578l10.513-16.751L440.6,502.254l4.269,12.812Z" transform="translate(-269.639 -498.063)" fill="none" stroke="#000" stroke-width="4"/>
    <path id="Tracé_18" data-name="Tracé 18" d="M613.943,711.964,624.859,799l-38.849-43.471L544.6,758.721l11.772-18.415,19.565-27.875Z" transform="translate(-283.936 -526.892)" fill="none" stroke="#000" stroke-width="4"/>
    <path id="Tracé_19" data-name="Tracé 19" d="M515.73,913.622l30.33,77.985,52.925-16.448-3.364-70.678-21.754,8.338Z" transform="translate(-279.967 -553.358)" fill="none" stroke="#000" stroke-width="4"/>
    <path id="Tracé_20" data-name="Tracé 20" d="M670.593,945.692l-20.476-59.838-.956.365-41.3,15.76,3.722,69.3,60.774,60.661Z" transform="translate(-292.633 -550.797)" fill="none" stroke="#000" stroke-width="4"/>
    <path id="Tracé_21" data-name="Tracé 21" d="M688.043,777.777,637.9,711.756H624.5l11.336,87.1,16.346,62.884L673,922.03l-2.023-68.868,51.553-75.385Z" transform="translate(-294.92 -526.864)" fill="none" stroke="#000" stroke-width="4"/>
    <path id="Tracé_22" data-name="Tracé 22" d="M681.931,980.119h13.358L808.372,651.3,678.734,844.688Z" transform="translate(-302.375 -518.553)" fill="none" stroke="#000" stroke-width="4"/>
    <path id="Tracé_23" data-name="Tracé 23" d="M706.826,994.372l-12.054-14.094L807.6,651.415l3.234,31.79L831.1,702.911Z" transform="translate(-301.993 -518.569)" fill="none" stroke="#000" stroke-width="4"/>
    <path id="Tracé_24" data-name="Tracé 24" d="M905.7,756.547,829.39,653.566l-.206,29.892Z" transform="translate(-323.058 -518.864)" fill="none" stroke="#000" stroke-width="4"/>
    <path id="Tracé_25" data-name="Tracé 25" d="M874.384,658.208l-44.449-5.729,76.093,104.429Z" transform="translate(-323.161 -518.715)" fill="none" stroke="#000" stroke-width="4"/>
    <path id="Tracé_26" data-name="Tracé 26" d="M820.516,787.529l78.936-.007L797.727,839.937Z" transform="translate(-318.733 -537.279)" fill="none" stroke="#000" stroke-width="4"/>
  </g>
</svg>
